{
    "asset" : {
        "generator" : "Khronos glTF Blender I/O v1.8.19",
        "version" : "2.0"
    },
    "scene" : 0,
    "scenes" : [
        {
            "name" : "Scene",
            "nodes" : [
                0,
                1,
                2,
                3,
                4
            ]
        }
    ],
    "nodes" : [
        {
            "mesh" : 0,
            "name" : "G36C"
        },
        {
            "name" : "optics_socket",
            "rotation" : [
                0,
                -0.7071068286895752,
                0,
                0.7071068286895752
            ],
            "translation" : [
                0.10469980537891388,
                0.1176329255104065,
                -0.000535018858499825
            ]
        },
        {
            "name" : "muzzle",
            "rotation" : [
                0,
                -0.7071068286895752,
                0,
                0.7071068286895752
            ],
            "translation" : [
                0.4779881238937378,
                0.05226321145892143,
                -0.000535018858499825
            ]
        },
        {
            "name" : "IKHandL",
            "rotation" : [
                0.887010931968689,
                -0.4617486596107483,
                0,
                6.696745913359337e-08
            ],
            "translation" : [
                0.35890406370162964,
                0.019103683531284332,
                0.032017890363931656
            ]
        },
        {
            "name" : "collision.box",
            "scale" : [
                1.0169904232025146,
                0.32308802008628845,
                0.08741626888513565
            ],
            "translation" : [
                0.10401943325996399,
                -0.02168644219636917,
                -0.000535018858499825
            ]
        }
    ],
    "meshes" : [
        {
            "name" : "Cube.011",
            "primitives" : [
                {
                    "attributes" : {
                        "POSITION" : 0,
                        "NORMAL" : 1,
                        "TEXCOORD_0" : 2
                    },
                    "indices" : 3
                }
            ]
        }
    ],
    "accessors" : [
        {
            "bufferView" : 0,
            "componentType" : 5126,
            "count" : 1560,
            "max" : [
                0.4760981500148773,
                0.1307985782623291,
                0.027433523908257484
            ],
            "min" : [
                -0.2694721519947052,
                -0.152715802192688,
                -0.027433548122644424
            ],
            "type" : "VEC3"
        },
        {
            "bufferView" : 1,
            "componentType" : 5126,
            "count" : 1560,
            "type" : "VEC3"
        },
        {
            "bufferView" : 2,
            "componentType" : 5126,
            "count" : 1560,
            "type" : "VEC2"
        },
        {
            "bufferView" : 3,
            "componentType" : 5123,
            "count" : 2412,
            "type" : "SCALAR"
        }
    ],
    "bufferViews" : [
        {
            "buffer" : 0,
            "byteLength" : 18720,
            "byteOffset" : 0
        },
        {
            "buffer" : 0,
            "byteLength" : 18720,
            "byteOffset" : 18720
        },
        {
            "buffer" : 0,
            "byteLength" : 12480,
            "byteOffset" : 37440
        },
        {
            "buffer" : 0,
            "byteLength" : 4824,
            "byteOffset" : 49920
        }
    ],
    "buffers" : [
        {
            "byteLength" : 54744,
            "uri" : "data:application/octet-stream;base64,"
        }
    ]
}
